<mxfile host="app.diagrams.net" modified="2023-01-30T04:46:07.729Z" agent="5.0 (Windows NT 10.0; Win64; x64) AppleWebKit/537.36 (KHTML, like Gecko) Chrome/109.0.0.0 Safari/537.36" etag="zT1ermycGqTjEPPekL95" version="20.8.11" type="github">
  <diagram name="Page-1" id="jYpnWqnNWGqpR6k1zWHy">
    <mxGraphModel dx="1764" dy="1027" grid="1" gridSize="10" guides="1" tooltips="1" connect="1" arrows="1" fold="1" page="1" pageScale="1" pageWidth="850" pageHeight="1100" math="0" shadow="0">
      <root>
        <mxCell id="0" />
        <mxCell id="1" parent="0" />
        <mxCell id="mbxZbuyniR9xnibPYPuA-3" value="" style="edgeStyle=orthogonalEdgeStyle;rounded=0;orthogonalLoop=1;jettySize=auto;html=1;" edge="1" parent="1" source="mbxZbuyniR9xnibPYPuA-1" target="mbxZbuyniR9xnibPYPuA-4">
          <mxGeometry relative="1" as="geometry" />
        </mxCell>
        <mxCell id="mbxZbuyniR9xnibPYPuA-1" value="Yearly Accumulation Batches&lt;br&gt;(company level)" style="rounded=0;whiteSpace=wrap;html=1;fillColor=#dae8fc;strokeColor=#6c8ebf;" vertex="1" parent="1">
          <mxGeometry x="350" y="220" width="120" height="60" as="geometry" />
        </mxCell>
        <mxCell id="mbxZbuyniR9xnibPYPuA-5" value="" style="edgeStyle=orthogonalEdgeStyle;rounded=0;orthogonalLoop=1;jettySize=auto;html=1;entryX=0.5;entryY=0;entryDx=0;entryDy=0;" edge="1" parent="1" source="mbxZbuyniR9xnibPYPuA-4" target="mbxZbuyniR9xnibPYPuA-6">
          <mxGeometry relative="1" as="geometry">
            <mxPoint x="410" y="490" as="targetPoint" />
          </mxGeometry>
        </mxCell>
        <mxCell id="mbxZbuyniR9xnibPYPuA-4" value="Generate Yearly Accumulation" style="rounded=0;whiteSpace=wrap;html=1;fillColor=#dae8fc;strokeColor=#6c8ebf;" vertex="1" parent="1">
          <mxGeometry x="350" y="310" width="120" height="60" as="geometry" />
        </mxCell>
        <mxCell id="mbxZbuyniR9xnibPYPuA-11" style="edgeStyle=orthogonalEdgeStyle;rounded=0;orthogonalLoop=1;jettySize=auto;html=1;" edge="1" parent="1" source="mbxZbuyniR9xnibPYPuA-6" target="mbxZbuyniR9xnibPYPuA-10">
          <mxGeometry relative="1" as="geometry" />
        </mxCell>
        <mxCell id="mbxZbuyniR9xnibPYPuA-6" value="output -&amp;gt; &lt;br&gt;Yearly Accumulation (employee level)" style="shape=parallelogram;perimeter=parallelogramPerimeter;whiteSpace=wrap;html=1;fixedSize=1;fillColor=#d5e8d4;strokeColor=#82b366;" vertex="1" parent="1">
          <mxGeometry x="337" y="400" width="145" height="60" as="geometry" />
        </mxCell>
        <mxCell id="mbxZbuyniR9xnibPYPuA-9" style="edgeStyle=orthogonalEdgeStyle;rounded=0;orthogonalLoop=1;jettySize=auto;html=1;" edge="1" parent="1" source="mbxZbuyniR9xnibPYPuA-8" target="mbxZbuyniR9xnibPYPuA-1">
          <mxGeometry relative="1" as="geometry" />
        </mxCell>
        <mxCell id="mbxZbuyniR9xnibPYPuA-8" value="Start" style="ellipse;whiteSpace=wrap;html=1;fillColor=#ffe6cc;strokeColor=#d79b00;" vertex="1" parent="1">
          <mxGeometry x="360" y="150" width="100" height="40" as="geometry" />
        </mxCell>
        <mxCell id="mbxZbuyniR9xnibPYPuA-10" value="End" style="ellipse;whiteSpace=wrap;html=1;fillColor=#ffe6cc;strokeColor=#d79b00;" vertex="1" parent="1">
          <mxGeometry x="360" y="500" width="100" height="40" as="geometry" />
        </mxCell>
        <mxCell id="mbxZbuyniR9xnibPYPuA-13" value="Generrate Yearly Accumulation" style="text;html=1;strokeColor=none;fillColor=none;align=center;verticalAlign=middle;whiteSpace=wrap;rounded=0;" vertex="1" parent="1">
          <mxGeometry x="672" y="90" width="150" height="30" as="geometry" />
        </mxCell>
        <mxCell id="mbxZbuyniR9xnibPYPuA-20" style="edgeStyle=orthogonalEdgeStyle;rounded=0;orthogonalLoop=1;jettySize=auto;html=1;" edge="1" parent="1" source="mbxZbuyniR9xnibPYPuA-21">
          <mxGeometry relative="1" as="geometry">
            <mxPoint x="750" y="220" as="targetPoint" />
          </mxGeometry>
        </mxCell>
        <mxCell id="mbxZbuyniR9xnibPYPuA-21" value="Start" style="ellipse;whiteSpace=wrap;html=1;fillColor=#ffe6cc;strokeColor=#d79b00;" vertex="1" parent="1">
          <mxGeometry x="700" y="150" width="100" height="40" as="geometry" />
        </mxCell>
        <mxCell id="mbxZbuyniR9xnibPYPuA-22" value="End" style="ellipse;whiteSpace=wrap;html=1;fillColor=#ffe6cc;strokeColor=#d79b00;" vertex="1" parent="1">
          <mxGeometry x="700" y="730" width="100" height="40" as="geometry" />
        </mxCell>
        <mxCell id="mbxZbuyniR9xnibPYPuA-34" style="edgeStyle=orthogonalEdgeStyle;rounded=0;orthogonalLoop=1;jettySize=auto;html=1;entryX=0.5;entryY=0;entryDx=0;entryDy=0;fontSize=10;" edge="1" parent="1" source="mbxZbuyniR9xnibPYPuA-23">
          <mxGeometry relative="1" as="geometry">
            <mxPoint x="750" y="640" as="targetPoint" />
          </mxGeometry>
        </mxCell>
        <mxCell id="mbxZbuyniR9xnibPYPuA-40" style="edgeStyle=orthogonalEdgeStyle;rounded=0;orthogonalLoop=1;jettySize=auto;html=1;entryX=0;entryY=0.5;entryDx=0;entryDy=0;fontSize=10;" edge="1" parent="1" source="mbxZbuyniR9xnibPYPuA-23" target="mbxZbuyniR9xnibPYPuA-22">
          <mxGeometry relative="1" as="geometry">
            <Array as="points">
              <mxPoint x="622" y="580" />
              <mxPoint x="622" y="750" />
            </Array>
          </mxGeometry>
        </mxCell>
        <mxCell id="mbxZbuyniR9xnibPYPuA-23" value="&lt;font style=&quot;font-size: 10px;&quot;&gt;Contract still &lt;br&gt;running &amp;amp; Employee work &lt;br&gt;period &amp;gt;= 12?&lt;/font&gt;" style="rhombus;whiteSpace=wrap;html=1;fillColor=#fff2cc;strokeColor=#d6b656;" vertex="1" parent="1">
          <mxGeometry x="680" y="540" width="140" height="80" as="geometry" />
        </mxCell>
        <mxCell id="mbxZbuyniR9xnibPYPuA-33" style="edgeStyle=orthogonalEdgeStyle;rounded=0;orthogonalLoop=1;jettySize=auto;html=1;entryX=0.5;entryY=0;entryDx=0;entryDy=0;fontSize=10;" edge="1" parent="1" source="mbxZbuyniR9xnibPYPuA-26" target="mbxZbuyniR9xnibPYPuA-23">
          <mxGeometry relative="1" as="geometry" />
        </mxCell>
        <mxCell id="mbxZbuyniR9xnibPYPuA-39" style="edgeStyle=orthogonalEdgeStyle;rounded=0;orthogonalLoop=1;jettySize=auto;html=1;fontSize=10;" edge="1" parent="1" source="mbxZbuyniR9xnibPYPuA-26">
          <mxGeometry relative="1" as="geometry">
            <mxPoint x="702" y="750" as="targetPoint" />
            <Array as="points">
              <mxPoint x="642" y="480" />
              <mxPoint x="642" y="750" />
            </Array>
          </mxGeometry>
        </mxCell>
        <mxCell id="mbxZbuyniR9xnibPYPuA-26" value="&lt;span style=&quot;font-size: 10px;&quot;&gt;The Employees&lt;br&gt;&amp;nbsp;of the company != null?&lt;br&gt;&lt;/span&gt;" style="rhombus;whiteSpace=wrap;html=1;fillColor=#fff2cc;strokeColor=#d6b656;" vertex="1" parent="1">
          <mxGeometry x="680.5" y="440" width="140" height="80" as="geometry" />
        </mxCell>
        <mxCell id="mbxZbuyniR9xnibPYPuA-31" value="" style="edgeStyle=orthogonalEdgeStyle;rounded=0;orthogonalLoop=1;jettySize=auto;html=1;fontSize=10;" edge="1" parent="1" source="mbxZbuyniR9xnibPYPuA-27" target="mbxZbuyniR9xnibPYPuA-30">
          <mxGeometry relative="1" as="geometry" />
        </mxCell>
        <mxCell id="mbxZbuyniR9xnibPYPuA-38" style="edgeStyle=orthogonalEdgeStyle;rounded=0;orthogonalLoop=1;jettySize=auto;html=1;entryX=0;entryY=0.5;entryDx=0;entryDy=0;fontSize=10;" edge="1" parent="1" source="mbxZbuyniR9xnibPYPuA-27" target="mbxZbuyniR9xnibPYPuA-22">
          <mxGeometry relative="1" as="geometry">
            <Array as="points">
              <mxPoint x="660" y="260" />
              <mxPoint x="660" y="750" />
            </Array>
          </mxGeometry>
        </mxCell>
        <mxCell id="mbxZbuyniR9xnibPYPuA-27" value="&lt;span style=&quot;font-size: 10px;&quot;&gt;Is there any &lt;br&gt;salary structure &lt;br&gt;inputed?&lt;br&gt;&lt;/span&gt;" style="rhombus;whiteSpace=wrap;html=1;fillColor=#fff2cc;strokeColor=#d6b656;" vertex="1" parent="1">
          <mxGeometry x="680.5" y="220" width="140" height="80" as="geometry" />
        </mxCell>
        <mxCell id="mbxZbuyniR9xnibPYPuA-32" value="" style="edgeStyle=orthogonalEdgeStyle;rounded=0;orthogonalLoop=1;jettySize=auto;html=1;fontSize=10;" edge="1" parent="1" source="mbxZbuyniR9xnibPYPuA-30" target="mbxZbuyniR9xnibPYPuA-26">
          <mxGeometry relative="1" as="geometry" />
        </mxCell>
        <mxCell id="mbxZbuyniR9xnibPYPuA-30" value="Get the salary rules as yearly accumulation components" style="rounded=0;whiteSpace=wrap;html=1;fontSize=10;fillColor=#dae8fc;strokeColor=#6c8ebf;" vertex="1" parent="1">
          <mxGeometry x="690" y="340" width="120" height="60" as="geometry" />
        </mxCell>
        <mxCell id="mbxZbuyniR9xnibPYPuA-35" value="The salary structure type is yearly" style="text;html=1;strokeColor=none;fillColor=none;align=center;verticalAlign=middle;whiteSpace=wrap;rounded=0;fontSize=10;" vertex="1" parent="1">
          <mxGeometry x="800" y="290" width="100" height="30" as="geometry" />
        </mxCell>
        <mxCell id="mbxZbuyniR9xnibPYPuA-37" value="" style="edgeStyle=orthogonalEdgeStyle;rounded=0;orthogonalLoop=1;jettySize=auto;html=1;fontSize=10;" edge="1" parent="1" source="mbxZbuyniR9xnibPYPuA-36" target="mbxZbuyniR9xnibPYPuA-22">
          <mxGeometry relative="1" as="geometry" />
        </mxCell>
        <mxCell id="mbxZbuyniR9xnibPYPuA-36" value="Display the data in&lt;br&gt;yearly accumulation&lt;br&gt;form" style="shape=parallelogram;perimeter=parallelogramPerimeter;whiteSpace=wrap;html=1;fixedSize=1;fontSize=10;fillColor=#d5e8d4;strokeColor=#82b366;" vertex="1" parent="1">
          <mxGeometry x="690" y="640" width="120" height="60" as="geometry" />
        </mxCell>
        <mxCell id="mbxZbuyniR9xnibPYPuA-41" value="No" style="text;html=1;strokeColor=none;fillColor=none;align=center;verticalAlign=middle;whiteSpace=wrap;rounded=0;fontSize=10;" vertex="1" parent="1">
          <mxGeometry x="643" y="550" width="60" height="30" as="geometry" />
        </mxCell>
        <mxCell id="mbxZbuyniR9xnibPYPuA-42" value="No" style="text;html=1;strokeColor=none;fillColor=none;align=center;verticalAlign=middle;whiteSpace=wrap;rounded=0;fontSize=10;" vertex="1" parent="1">
          <mxGeometry x="643" y="456" width="60" height="30" as="geometry" />
        </mxCell>
        <mxCell id="mbxZbuyniR9xnibPYPuA-43" value="No" style="text;html=1;strokeColor=none;fillColor=none;align=center;verticalAlign=middle;whiteSpace=wrap;rounded=0;fontSize=10;" vertex="1" parent="1">
          <mxGeometry x="642" y="237" width="60" height="30" as="geometry" />
        </mxCell>
        <mxCell id="mbxZbuyniR9xnibPYPuA-44" value="Yes" style="text;html=1;strokeColor=none;fillColor=none;align=center;verticalAlign=middle;whiteSpace=wrap;rounded=0;fontSize=10;" vertex="1" parent="1">
          <mxGeometry x="739" y="508" width="60" height="30" as="geometry" />
        </mxCell>
        <mxCell id="mbxZbuyniR9xnibPYPuA-45" value="Yes" style="text;html=1;strokeColor=none;fillColor=none;align=center;verticalAlign=middle;whiteSpace=wrap;rounded=0;fontSize=10;" vertex="1" parent="1">
          <mxGeometry x="739" y="610" width="60" height="30" as="geometry" />
        </mxCell>
        <mxCell id="mbxZbuyniR9xnibPYPuA-46" value="Yes" style="text;html=1;strokeColor=none;fillColor=none;align=center;verticalAlign=middle;whiteSpace=wrap;rounded=0;fontSize=10;" vertex="1" parent="1">
          <mxGeometry x="737" y="302" width="60" height="30" as="geometry" />
        </mxCell>
        <mxCell id="mbxZbuyniR9xnibPYPuA-47" value="" style="rounded=0;whiteSpace=wrap;html=1;fontSize=10;fillColor=none;" vertex="1" parent="1">
          <mxGeometry x="310" y="60" width="608" height="740" as="geometry" />
        </mxCell>
      </root>
    </mxGraphModel>
  </diagram>
</mxfile>
